<?xml version="1.0" encoding="UTF-8" standalone="no"?>
<!-- Created with Inkscape (http://www.inkscape.org/) -->

<svg
   xmlns:dc="http://purl.org/dc/elements/1.1/"
   xmlns:cc="http://creativecommons.org/ns#"
   xmlns:rdf="http://www.w3.org/1999/02/22-rdf-syntax-ns#"
   xmlns:svg="http://www.w3.org/2000/svg"
   xmlns="http://www.w3.org/2000/svg"
   xmlns:sodipodi="http://sodipodi.sourceforge.net/DTD/sodipodi-0.dtd"
   xmlns:inkscape="http://www.inkscape.org/namespaces/inkscape"
   width="744.09448819"
   height="1052.3622047"
   id="svg2"
   version="1.1"
   inkscape:version="0.48.5 r10040"
   sodipodi:docname="evoface_icon.svg">
  <defs
     id="defs4" />
  <sodipodi:namedview
     id="base"
     pagecolor="#ffffff"
     bordercolor="#666666"
     borderopacity="1.0"
     inkscape:pageopacity="0.0"
     inkscape:pageshadow="2"
     inkscape:zoom="4.6819623"
     inkscape:cx="345.24625"
     inkscape:cy="740.92663"
     inkscape:document-units="px"
     inkscape:current-layer="layer1"
     showgrid="false"
     inkscape:window-width="1920"
     inkscape:window-height="1058"
     inkscape:window-x="3278"
     inkscape:window-y="-8"
     inkscape:window-maximized="1" />
  <metadata
     id="metadata7">
    <rdf:RDF>
      <cc:Work
         rdf:about="">
        <dc:format>image/svg+xml</dc:format>
        <dc:type
           rdf:resource="http://purl.org/dc/dcmitype/StillImage" />
        <dc:title></dc:title>
      </cc:Work>
    </rdf:RDF>
  </metadata>
  <g
     inkscape:label="Layer 1"
     inkscape:groupmode="layer"
     id="layer1">
    <g
       id="g3175">
      <rect
         ry="0.26172805"
         y="216.26294"
         x="277.25732"
         height="136.24167"
         width="138.66014"
         id="rect3094"
         style="fill:none;stroke:none" />
      <g
         id="g3164">
        <g
           id="g3096"
           transform="matrix(0.43577501,0,0,0.43577501,229.24137,153.24345)">
          <g
             id="g3074">
            <path
               style="fill:#ff6600;fill-opacity:0.8;stroke:none"
               d="m 152.8125,183.79522 c -0.36337,0 -0.65625,0.29288 -0.65625,0.65625 l 0,154.40625 c -2.43664,-0.96276 -5.09606,-1.46875 -7.875,-1.46875 -11.83467,0 -21.4375,9.57158 -21.4375,21.40625 0,11.83467 9.60283,21.4375 21.4375,21.4375 2.77894,0 5.43836,-0.53724 7.875,-1.5 l 0,38.6875 c 0,0.36337 0.29288,0.65625 0.65625,0.65625 l 232.96875,0 c 0.36337,0 0.65625,-0.29288 0.65625,-0.65625 l 0,-38.6875 c 2.42917,0.95594 5.07519,1.5 7.84375,1.5 11.83467,0 21.4375,-9.60283 21.4375,-21.4375 0,-11.83467 -9.60283,-21.40625 -21.4375,-21.40625 -2.76856,0 -5.41458,0.51281 -7.84375,1.46875 l 0,-154.40625 c 0,-0.36337 -0.29288,-0.65625 -0.65625,-0.65625 l -232.96875,0 z"
               id="rect2985"
               inkscape:connector-curvature="0" />
            <rect
               style="fill:#800000;fill-opacity:0.8;stroke:none"
               id="rect3007"
               width="42.857143"
               height="25.714285"
               x="247.85268"
               y="392.36218"
               ry="0.65590966" />
          </g>
          <path
             transform="translate(-16.004468,0.7142907)"
             d="m 268.57143,273.79074 c 0,24.45833 -19.82739,44.28571 -44.28571,44.28571 -24.45832,0 -44.28571,-19.82738 -44.28571,-44.28571 0,-24.45832 19.82739,-44.28571 44.28571,-44.28571 24.45832,0 44.28571,19.82739 44.28571,44.28571 z"
             sodipodi:ry="44.285713"
             sodipodi:rx="44.285713"
             sodipodi:cy="273.79074"
             sodipodi:cx="224.28572"
             id="path2987"
             style="fill:#ffffff;fill-opacity:0.8;stroke:none"
             sodipodi:type="arc" />
        </g>
        <path
           sodipodi:type="arc"
           style="fill:#ffffff;fill-opacity:0.80000000000000004;stroke:none"
           id="path2987-1"
           sodipodi:cx="224.28572"
           sodipodi:cy="273.79074"
           sodipodi:rx="44.285713"
           sodipodi:ry="44.285713"
           d="m 268.57143,273.79074 a 44.285713,44.285713 0 1 1 -88.57142,0 44.285713,44.285713 0 1 1 88.57142,0 z"
           transform="matrix(0.43577501,0,0,0.43577501,275.43157,153.55472)" />
        <g
           id="g3070"
           transform="matrix(0.43577501,0,0,0.43577501,229.24137,153.24345)">
          <path
             transform="translate(386.42412,-31.571429)"
             d="m -157.14285,305.21933 c 0,11.83467 -9.5939,21.42857 -21.42858,21.42857 -11.83467,0 -21.42857,-9.5939 -21.42857,-21.42857 0,-11.83467 9.5939,-21.42857 21.42857,-21.42857 11.83468,0 21.42858,9.5939 21.42858,21.42857 z"
             sodipodi:ry="21.428572"
             sodipodi:rx="21.428572"
             sodipodi:cy="305.21933"
             sodipodi:cx="-178.57143"
             id="path3056"
             style="fill:#333333;fill-opacity:0.8;stroke:none"
             sodipodi:type="arc" />
          <path
             sodipodi:type="arc"
             style="fill:#333333;fill-opacity:0.8;stroke:none"
             id="path3058"
             sodipodi:cx="-178.57143"
             sodipodi:cy="305.21933"
             sodipodi:rx="21.428572"
             sodipodi:ry="21.428572"
             d="m -157.14285,305.21933 c 0,11.83467 -9.5939,21.42857 -21.42858,21.42857 -11.83467,0 -21.42857,-9.5939 -21.42857,-21.42857 0,-11.83467 9.5939,-21.42857 21.42857,-21.42857 11.83468,0 21.42858,9.5939 21.42858,21.42857 z"
             transform="translate(508.42412,-31.571429)" />
        </g>
      </g>
    </g>
  </g>
</svg>
